<svg t="1762066845166" class="icon" viewBox="0 0 1024 1024" version="1.1" xmlns="http://www.w3.org/2000/svg" p-id="4891" width="64" height="64"><path d="M512 512m-512 0a512 512 0 1 0 1024 0 512 512 0 1 0-1024 0Z" fill="#EFEFEF" p-id="4892"></path><path d="M512 512m-294.4 0a294.4 294.4 0 1 0 588.8 0 294.4 294.4 0 1 0-588.8 0Z" fill="#F5E4D1" p-id="4893"></path><path d="M217.6 512a294.4 294.4 0 0 1 588.8 0" fill="#E8886B" p-id="4894"></path><path d="M516.608 509.44m-44.8 0a44.8 44.8 0 1 0 89.6 0 44.8 44.8 0 1 0-89.6 0Z" fill="#F5E4D1" p-id="4895"></path><path d="M512 217.6a294.4 294.4 0 1 0 294.4 294.4 294.4 294.4 0 0 0-294.4-294.4z m0 51.2a243.2 243.2 0 0 1 241.792 217.6H597.888a89.6 89.6 0 0 0-171.776 0H270.208A243.2 243.2 0 0 1 512 268.8z m38.4 243.2a38.4 38.4 0 1 1-9.984-25.6 38.4 38.4 0 0 1 9.984 25.6z m-38.4 243.2a243.2 243.2 0 0 1-241.792-217.6h155.904a89.6 89.6 0 0 0 171.776 0h155.904A243.2 243.2 0 0 1 512 755.2z" p-id="4896"></path></svg>